<svg xmlns="http://www.w3.org/2000/svg" viewBox="0 0 129 129" role="img" aria-label="Dezorzi">
  <!-- O símbolo é mais largo que alto; num ícone quadrado ele vai centrado,
       com folga em cima e embaixo, para o navegador não o esticar. -->
  <rect width="129" height="129" fill="#fff"/>
  <g transform="translate(0 14.5)">
    <rect width="129" height="100" fill="#245f66"/>
    <rect x="12" y="12" width="105" height="76" fill="#fff"/>
    <path d="M129 12 129 88 87.2 88Z" fill="#c3a059"/>
    <path d="M58 12 78 12 58 42Z" fill="#c3a059"/>
    <path d="M0 0 34 0A34 50 0 0 1 34 100L0 100Z M12 12 34 12A22 38 0 0 1 34 88L12 88Z"
          fill="#245f66" fill-rule="evenodd"/>
    <path d="M98.5 12 103 12 61.2 88 56.7 88Z" fill="#fff"/>
    <path d="M103 12 129 12 87.2 88 61.2 88Z" fill="#245f66"/>
  </g>
</svg>
